Coordinates
version=1
nRows=22
nColumns=24
inDegrees=yes

Units are S.I. units (second, meters, Newtons, ...)
Angles are in degrees.

endheader
time	pelvis_tilt	pelvis_list	pelvis_rotation	pelvis_tx	pelvis_ty	pelvis_tz	hip_flexion_r	hip_adduction_r	hip_rotation_r	knee_angle_r	ankle_angle_r	subtalar_angle_r	mtp_angle_r	hip_flexion_l	hip_adduction_l	hip_rotation_l	knee_angle_l	ankle_angle_l	subtalar_angle_l	mtp_angle_l	lumbar_extension	lumbar_bending	lumbar_rotation
      0.81300000	     -0.54352828	     -3.75261903	      5.71825384	     -0.46811104	      0.91045893	      0.37179583	     11.84129757	     10.52993226	     -2.55919343	    -19.95225741	      9.04284410	     -2.82951269	      3.58756431	     16.69181593	     -8.78213876	     -3.94606582	    -72.00040739	     -3.83842102	     -6.66429480	      4.40770798	     -5.67546129	      6.10025348	     -1.28178866
      0.81716667	     -0.61098201	     -3.62233729	      5.56211536	     -0.46297615	      0.91139597	      0.37216779	     11.28669199	     10.45394244	     -2.39091786	    -19.46915860	      9.06439195	     -2.68117106	      3.59914903	     17.34043360	     -8.57103232	     -4.12697439	    -71.65982580	     -3.17697458	     -7.00810519	      4.35226648	     -5.60479311	      5.93837385	     -1.19642584
      0.82133333	     -0.62975401	     -3.47267123	      5.36378978	     -0.45785749	      0.91241480	      0.37258098	     10.67115042	     10.36524568	     -2.16414158	    -18.97626354	      9.08032667	     -2.51448725	      3.66612894	     17.89431914	     -8.34772855	     -4.35231942	    -71.22182680	     -2.59771014	     -7.42754415	      3.99331797	     -5.65348455	      5.75512116	     -0.68646426
      0.82550000	     -0.62578049	     -3.32599081	      5.18012048	     -0.45271620	      0.91343387	      0.37299028	     10.02154505	     10.27793289	     -1.96397388	    -18.46440060	      9.14457353	     -2.38547297	      3.70299143	     18.40912667	     -8.13358164	     -4.57722267	    -70.71955382	     -2.02593291	     -7.83745292	      3.81492431	     -5.69792930	      5.55064796	     -0.47749355
      0.82966667	     -0.62664011	     -3.17804877	      4.97014093	     -0.44758753	      0.91442553	      0.37342490	      9.37678858	     10.18597682	     -1.74455579	    -17.94796795	      9.16677619	     -2.22918927	      3.74362369	     18.90355330	     -7.92497244	     -4.82737352	    -70.14543241	     -1.46844493	     -8.17997578	      3.62587340	     -5.73911027	      5.35720713	     -0.15419976
      0.83383333	     -0.62045970	     -3.02411842	      4.74963728	     -0.44247121	      0.91540452	      0.37386910	      8.72327963	     10.08426159	     -1.51650586	    -17.42748255	      9.18181722	     -2.07198877	      3.77889920	     19.36804711	     -7.70932225	     -5.08206160	    -69.50075299	     -0.93324923	     -8.50204646	      3.47270369	     -5.79672393	      5.16621345	      0.13258530
      0.83800000	     -0.60383176	     -2.86838071	      4.51258422	     -0.43735657	      0.91637136	      0.37431747	      8.05846963	      9.97618174	     -1.28829125	    -16.90528414	      9.18151148	     -1.90834308	      3.80921591	     19.79495382	     -7.49892804	     -5.36234753	    -68.78504798	     -0.40683413	     -8.79600071	      3.34718066	     -5.85579101	      4.97802000	      0.41913655
      0.84216667	     -0.56387991	     -2.72246823	      4.27765994	     -0.43222646	      0.91733280	      0.37479405	      7.35279558	      9.87855639	     -1.06188931	    -16.34718127	      9.19531983	     -1.74792515	      3.84797691	     20.18164795	     -7.31348380	     -5.65114498	    -68.01170531	      0.06130738	     -9.05810337	      3.19267729	     -5.93848948	      4.76458667	      0.79098762
      0.84633333	     -0.52038390	     -2.56112513	      4.01800293	     -0.42713123	      0.91827167	      0.37526192	      6.65865022	      9.75664070	     -0.82860105	    -15.81824172	      9.18969920	     -1.58280170	      3.88269966	     20.53438889	     -7.10683563	     -5.95658585	    -67.16247554	      0.53594072	     -9.29199431	      3.06215798	     -6.03270234	      4.57388084	      1.10375258
      0.85050000	     -0.48385067	     -2.42896046	      3.75731344	     -0.42202615	      0.91914016	      0.37575644	      5.95998935	      9.66322792	     -0.59135896	    -15.25356468	      9.15465239	     -1.43002343	      3.96767856	     20.88710773	     -6.94573010	     -6.26787008	    -66.27367166	      0.99880002	     -9.47013979	      2.75184508	     -6.10199369	      4.39197448	      1.59215065
      0.85466667	     -0.41509876	     -2.26675827	      3.49702993	     -0.41694707	      0.92003122	      0.37622258	      5.23010002	      9.53060473	     -0.35714595	    -14.70137983	      9.18117567	     -1.25004689	      4.00724862	     21.17549624	     -6.73996711	     -6.57069884	    -65.30096776	      1.40145282	     -9.64662336	      2.61680055	     -6.23463637	      4.17608273	      1.82769444
      0.85883333	     -0.35376300	     -2.12444427	      3.22275915	     -0.41189745	      0.92085276	      0.37669501	      4.51396714	      9.41274631	     -0.11876827	    -14.14680098	      9.15568036	     -1.06718622	      4.05754561	     21.45927890	     -6.56024203	     -6.88014522	    -64.28266663	      1.81314671	     -9.77762844	      2.45076072	     -6.36011910	      3.99709138	      2.20300023
      0.86300000	     -0.28403949	     -1.98648822	      2.94177443	     -0.40682838	      0.92163218	      0.37717796	      3.78738806	      9.29321465	      0.10241499	    -13.58840078	      9.12780133	     -0.89431868	      4.12168585	     21.71242571	     -6.39748876	     -7.21146446	    -63.20983777	      2.20622214	     -9.87361177	      2.25171735	     -6.47146242	      3.81261599	      2.59006869
      0.86716667	     -0.20466389	     -1.83732463	      2.66417287	     -0.40177925	      0.92238047	      0.37763670	      3.05593094	      9.15428553	      0.31811271	    -13.04123663	      9.15574816	     -0.71633994	      4.16171067	     21.93446290	     -6.21396495	     -7.53300324	    -62.06982233	      2.54174703	     -9.93743199	      2.13830080	     -6.60020071	      3.60712064	      2.86162465
      0.87133333	     -0.12941775	     -1.70406084	      2.37927631	     -0.39675173	      0.92305992	      0.37809808	      2.33295811	      9.02512360	      0.53186178	    -12.49113960	      9.14907583	     -0.52766243	      4.20267329	     22.14705623	     -6.05023340	     -7.85414802	    -60.88388993	      2.87180871	     -9.96640294	      2.02844526	     -6.72770478	      3.42732133	      3.19930244
      0.87550000	     -0.07362892	     -1.56385306	      2.07515698	     -0.39175679	      0.92366031	      0.37855718	      1.65461509	      8.87773346	      0.73792658	    -11.98323638	      9.10944195	     -0.32887473	      4.22957035	     22.35748294	     -5.87838468	     -8.18965976	    -59.63696814	      3.18385022	     -9.96822559	      1.96037599	     -6.83599863	      3.24286582	      3.45702604
      0.87966667	      0.02362336	     -1.46193219	      1.80893943	     -0.38673258	      0.92423786	      0.37898412	      0.89714901	      8.77177085	      0.93414073	    -11.40103441	      9.13839618	     -0.13195445	      4.27871933	     22.52201495	     -5.74358401	     -8.48035020	    -58.36256262	      3.44879950	     -9.92981560	      1.84796170	     -6.98294235	      3.09916359	      3.88740921
      0.88383333	      0.09336327	     -1.35235708	      1.52112919	     -0.38174482	      0.92472387	      0.37941334	      0.19476958	      8.64575540	      1.12585637	    -10.86424036	      9.13179683	      0.07512404	      4.32787215	     22.69342400	     -5.60042367	     -8.78607642	    -57.02826276	      3.69400879	     -9.86050362	      1.74129384	     -7.10611573	      2.94651779	      4.23273424
      0.88800000	      0.15911183	     -1.25164092	      1.23844126	     -0.37676472	      0.92513822	      0.37981781	     -0.49740558	      8.52187471	      1.29971279	    -10.33475596	      9.13682885	      0.29065868	      4.37832494	     22.85409993	     -5.46381155	     -9.08451851	    -55.64834008	      3.90541212	     -9.76851120	      1.64071166	     -7.21800768	      2.80400592	      4.56342022
      0.89216667	      0.22134215	     -1.15939452	      0.95928710	     -0.37178232	      0.92548639	      0.38021313	     -1.18193142	      8.40064967	      1.45853569	     -9.81095140	      9.14800812	      0.51753198	      4.42823203	     23.00158135	     -5.33478684	     -9.37687679	    -54.22080255	      4.08312990	     -9.64249986	      1.54880163	     -7.32298624	      2.66945641	      4.88261887
      0.89633333	      0.27510506	     -1.07888727	      0.68643138	     -0.36681170	      0.92574968	      0.38057926	     -1.85145485	      8.28485150	      1.60560242	     -9.29417453	      9.16495320	      0.75278795	      4.47783839	     23.14596293	     -5.21261927	     -9.65488926	    -52.75333716	      4.22469394	     -9.49377565	      1.46362615	     -7.41875094	      2.55183447	      5.19758994
      0.90050000	      0.32566729	     -1.01021632	      0.41606070	     -0.36184470	      0.92594344	      0.38093228	     -2.51249127	      8.17592862	      1.74234600	     -8.78570493	      9.18389702	      1.00862679	      4.53518545	     23.27765681	     -5.09976498	     -9.92186857	    -51.24402902	      4.33632476	     -9.32230196	      1.37300119	     -7.51630785	      2.44832181	      5.53144535
